<svg width="116" height="123" viewBox="0 0 116 123" fill="none" xmlns="http://www.w3.org/2000/svg">
<g clip-path="url(#clip0_10_96)">
<path d="M57 105C83.5097 105 105 83.5097 105 57C105 30.4903 83.5097 9 57 9C30.4903 9 9 30.4903 9 57C9 83.5097 30.4903 105 57 105Z" fill="url(#paint0_linear_10_96)" stroke="url(#paint1_linear_10_96)" stroke-width="4"/>
<path d="M88.142 63.7903L88.056 63.8796C88.0158 63.9206 87.9752 63.9614 87.9342 64.0019L64.3843 87.2789C60.2819 91.3337 53.6306 91.3337 49.5282 87.2789L43.0248 80.8512C42.5638 80.3973 42.5628 79.6591 43.0218 79.2032C43.1568 79.0691 43.3228 78.9696 43.5054 78.9131C50.4759 76.7829 56.1397 74.3239 60.4967 71.5362C70.8729 64.8972 80.088 62.3152 88.142 63.7903ZM83.2047 44.6425C91.8995 47.355 90.8848 53.6873 91 56.1836C81.4779 51.2406 70.0225 53.0523 56.6339 61.6187C46.6547 68.0037 38.2955 70.6362 31.5564 69.5162C24.8173 68.3962 23.3014 60.2481 23 58.0829C30.405 61.7896 40.3288 59.6621 52.7711 51.7013C64.3653 44.283 74.5099 41.9301 83.2047 44.6425ZM64.3843 26.0411L70.495 32.0801C70.9552 32.5348 70.9558 33.273 70.4967 33.7287C70.3329 33.8913 70.1242 34.0023 69.8968 34.0476C61.0508 35.8119 53.976 38.3906 48.6728 41.7838C39.5851 47.5983 31.841 50.3009 25.4404 49.8916L25.4411 49.8899L49.5282 26.0411C53.6306 21.9863 60.2819 21.9863 64.3843 26.0411Z" fill="white"/>
</g>
<path d="M82.5 121C99.897 121 114 106.897 114 89.5C114 72.103 99.897 58 82.5 58C65.103 58 51 72.103 51 89.5C51 106.897 65.103 121 82.5 121Z" fill="#E6E6F2" stroke="url(#paint2_linear_10_96)" stroke-width="3" stroke-miterlimit="10"/>
<path d="M76.3086 64.663C65.166 67.4327 56.9095 77.5005 56.9095 89.4981C56.9095 101.496 65.1679 111.565 76.3086 114.333" stroke="url(#paint3_linear_10_96)" stroke-width="3" stroke-miterlimit="10"/>
<path d="M88.5055 114.38C99.7421 111.678 108.092 101.565 108.092 89.4981C108.092 77.431 99.7421 67.3199 88.5055 64.616" stroke="url(#paint4_linear_10_96)" stroke-width="3" stroke-miterlimit="10"/>
<path d="M80.0084 71.7V74.8285" stroke="url(#paint5_linear_10_96)" stroke-width="3" stroke-miterlimit="10"/>
<path d="M84.0822 71.7V74.8285" stroke="url(#paint6_linear_10_96)" stroke-width="3" stroke-miterlimit="10"/>
<path d="M80.0084 104.404V107.533" stroke="url(#paint7_linear_10_96)" stroke-width="3" stroke-miterlimit="10"/>
<path d="M84.0822 104.404V107.533" stroke="url(#paint8_linear_10_96)" stroke-width="3" stroke-miterlimit="10"/>
<path d="M84.8563 102.749C83.7834 102.843 74.8956 102.749 69.2416 102.749C70.0496 94.9417 79.6063 96.4223 84.4523 95.6144C89.2983 94.8064 87.0097 87.403 87.0097 87.403C93.605 89.4211 94.009 101.941 84.8563 102.749Z" fill="url(#paint9_linear_10_96)" fill-opacity="0.6"/>
<path d="M79.7774 76.484C80.8503 76.3901 89.7381 76.484 95.3921 76.484C94.5841 84.2914 85.0274 82.8107 80.1814 83.6187C75.3354 84.4267 77.624 91.83 77.624 91.83C71.0286 89.8101 70.6246 77.292 79.7774 76.484Z" fill="url(#paint10_linear_10_96)" fill-opacity="0.6"/>
<path d="M82.4681 95.7233C85.9581 95.7233 88.7873 92.8941 88.7873 89.4041C88.7873 85.9141 85.9581 83.085 82.4681 83.085C78.9781 83.085 76.1489 85.9141 76.1489 89.4041C76.1489 92.8941 78.9781 95.7233 82.4681 95.7233Z" fill="url(#paint11_linear_10_96)" stroke="#E6E6F2" stroke-width="2"/>
<defs>
<linearGradient id="paint0_linear_10_96" x1="57" y1="7" x2="57" y2="107" gradientUnits="userSpaceOnUse">
<stop stop-color="#2142CB"/>
<stop offset="1" stop-color="#3066ED"/>
</linearGradient>
<linearGradient id="paint1_linear_10_96" x1="57" y1="7" x2="57" y2="107" gradientUnits="userSpaceOnUse">
<stop stop-color="#7DACFF"/>
<stop offset="1" stop-color="#CEDEFF"/>
</linearGradient>
<linearGradient id="paint2_linear_10_96" x1="71.611" y1="57.4363" x2="83.7251" y2="57.4363" gradientUnits="userSpaceOnUse">
<stop stop-color="#49506D"/>
<stop offset="1" stop-color="#0F1531"/>
</linearGradient>
<linearGradient id="paint3_linear_10_96" x1="56.344" y1="89.5" x2="76.4439" y2="89.5" gradientUnits="userSpaceOnUse">
<stop stop-color="#49506D"/>
<stop offset="1" stop-color="#0F1531"/>
</linearGradient>
<linearGradient id="paint4_linear_10_96" x1="88.374" y1="89.5" x2="108.656" y2="89.5" gradientUnits="userSpaceOnUse">
<stop stop-color="#49506D"/>
<stop offset="1" stop-color="#0F1531"/>
</linearGradient>
<linearGradient id="paint5_linear_10_96" x1="80.0084" y1="73.2642" x2="81.0084" y2="73.2642" gradientUnits="userSpaceOnUse">
<stop stop-color="#49506D"/>
<stop offset="1" stop-color="#0F1531"/>
</linearGradient>
<linearGradient id="paint6_linear_10_96" x1="84.0822" y1="73.2642" x2="85.0822" y2="73.2642" gradientUnits="userSpaceOnUse">
<stop stop-color="#49506D"/>
<stop offset="1" stop-color="#0F1531"/>
</linearGradient>
<linearGradient id="paint7_linear_10_96" x1="nan" y1="nan" x2="nan" y2="nan" gradientUnits="userSpaceOnUse">
<stop stop-color="#49506D"/>
<stop offset="1" stop-color="#0F1531"/>
</linearGradient>
<linearGradient id="paint8_linear_10_96" x1="84.0822" y1="105.969" x2="85.0822" y2="105.969" gradientUnits="userSpaceOnUse">
<stop stop-color="#49506D"/>
<stop offset="1" stop-color="#0F1531"/>
</linearGradient>
<linearGradient id="paint9_linear_10_96" x1="85.0454" y1="94.0851" x2="76.4303" y2="104.316" gradientUnits="userSpaceOnUse">
<stop stop-color="#49506D"/>
<stop offset="1" stop-color="#0F1531"/>
</linearGradient>
<linearGradient id="paint10_linear_10_96" x1="79.5873" y1="85.1485" x2="88.2024" y2="74.9177" gradientUnits="userSpaceOnUse">
<stop stop-color="#49506D"/>
<stop offset="1" stop-color="#0F1531"/>
</linearGradient>
<linearGradient id="paint11_linear_10_96" x1="83.4418" y1="83.8051" x2="81.4767" y2="95.1055" gradientUnits="userSpaceOnUse">
<stop stop-color="#1F294F"/>
<stop offset="1" stop-color="#6A6F85"/>
</linearGradient>
<clipPath id="clip0_10_96">
<rect width="100" height="100" fill="white" transform="translate(7 7)"/>
</clipPath>
</defs>
</svg>
