<svg width="143" height="160" viewBox="0 0 143 160" fill="none" xmlns="http://www.w3.org/2000/svg">
<path fill-rule="evenodd" clip-rule="evenodd" d="M107 57C107 84.6139 84.6146 107 57.0001 107C29.3858 107 7 84.6139 7 57C7 29.3857 29.3858 7 57.0001 7C84.6146 7 107 29.3857 107 57ZM59.0092 91.6913V44.1231C59.0092 42.9696 59.9443 42.0345 61.0979 42.0345H87.1723C89.8349 42.0345 91.4809 44.9369 90.1152 47.2223L62.8906 92.7637C61.8027 94.5834 59.0092 93.8119 59.0092 91.6913ZM54.9908 69.8233V22.2549C54.9908 20.1346 52.1973 19.3633 51.1094 21.1831L23.885 66.7242C22.5189 69.0095 24.1654 71.912 26.8279 71.912H52.9021C54.0557 71.912 54.9908 70.9769 54.9908 69.8233Z" fill="#91029B"/>
<g filter="url(#filter0_d_4_22)">
<rect x="55.6594" y="61.6072" width="51.6155" height="51.6155" rx="25.8078" fill="#E6E6F2" stroke="white"/>
<path d="M90.5074 76.4686C91.3957 77.2129 98.0873 84.0485 102.389 88.3504C95.8337 93.6768 89.688 85.2777 85.386 82.2046C81.084 79.1316 77.1917 86.5066 77.1917 86.5066C73.7091 79.9514 82.9277 70.1183 90.5074 76.4686Z" fill="url(#paint0_linear_4_22)" fill-opacity="0.6"/>
<path d="M93.3218 96.6863C92.5776 97.5746 85.7419 104.266 81.4401 108.568C76.1137 102.013 84.5128 95.8669 87.5858 91.5649C90.6589 87.2629 83.2838 83.3706 83.2838 83.3706C89.8391 79.888 99.6722 89.1066 93.3218 96.6863Z" fill="url(#paint1_linear_4_22)" fill-opacity="0.6"/>
<path d="M72.7461 100.543C71.8578 99.7988 65.1662 92.9631 60.8644 88.6613C67.4199 83.3348 73.5656 91.734 77.8675 94.807C82.1695 97.8801 86.0618 90.505 86.0618 90.505C89.5444 97.0603 80.3259 106.893 72.7461 100.543Z" fill="url(#paint2_linear_4_22)" fill-opacity="0.6"/>
<path d="M69.4703 80.5639C70.2145 79.6756 77.0502 72.984 81.352 68.6822C86.6785 75.2377 78.2793 81.3834 75.2063 85.6854C72.1332 89.9873 79.5083 93.8796 79.5083 93.8796C72.953 97.3622 63.1199 88.1437 69.4703 80.5639Z" fill="url(#paint3_linear_4_22)" fill-opacity="0.6"/>
<path d="M81.3501 95.4942C85.2965 95.4942 88.4958 92.295 88.4958 88.3485C88.4958 84.4021 85.2965 81.2028 81.3501 81.2028C77.4036 81.2028 74.2043 84.4021 74.2043 88.3485C74.2043 92.295 77.4036 95.4942 81.3501 95.4942Z" fill="url(#paint4_linear_4_22)" stroke="#E6E6F2" stroke-width="2"/>
</g>
<defs>
<filter id="filter0_d_4_22" x="20.9502" y="37.9503" width="121.353" height="121.35" filterUnits="userSpaceOnUse" color-interpolation-filters="sRGB">
<feFlood flood-opacity="0" result="BackgroundImageFix"/>
<feColorMatrix in="SourceAlpha" type="matrix" values="0 0 0 0 0 0 0 0 0 0 0 0 0 0 0 0 0 0 127 0" result="hardAlpha"/>
<feOffset dy="10"/>
<feGaussianBlur stdDeviation="15"/>
<feComposite in2="hardAlpha" operator="out"/>
<feColorMatrix type="matrix" values="0 0 0 0 0 0 0 0 0 0 0 0 0 0 0 0 0 0 0.25 0"/>
<feBlend mode="normal" in2="BackgroundImageFix" result="effect1_dropShadow_4_22"/>
<feBlend mode="normal" in="SourceGraphic" in2="effect1_dropShadow_4_22" result="shape"/>
</filter>
<linearGradient id="paint0_linear_4_22" x1="83.6035" y1="80.9736" x2="95.9175" y2="78.871" gradientUnits="userSpaceOnUse">
<stop stop-color="#484F6C"/>
<stop offset="1" stop-color="#0D1330"/>
</linearGradient>
<linearGradient id="paint1_linear_4_22" x1="88.8169" y1="89.7824" x2="90.046" y2="104.122" gradientUnits="userSpaceOnUse">
<stop stop-color="#484F6C"/>
<stop offset="1" stop-color="#0D1330"/>
</linearGradient>
<linearGradient id="paint2_linear_4_22" x1="79.6501" y1="96.0381" x2="65.3101" y2="97.2672" gradientUnits="userSpaceOnUse">
<stop stop-color="#484F6C"/>
<stop offset="1" stop-color="#0D1330"/>
</linearGradient>
<linearGradient id="paint3_linear_4_22" x1="73.9752" y1="87.4679" x2="72.7461" y2="73.1279" gradientUnits="userSpaceOnUse">
<stop stop-color="#484F6C"/>
<stop offset="1" stop-color="#0D1330"/>
</linearGradient>
<linearGradient id="paint4_linear_4_22" x1="78.3442" y1="82.9838" x2="85.4483" y2="93.0792" gradientUnits="userSpaceOnUse">
<stop stop-color="#20294F"/>
<stop offset="1" stop-color="#6A6E84"/>
</linearGradient>
</defs>
</svg>
