<svg width="146" height="163" viewBox="0 0 146 163" fill="none" xmlns="http://www.w3.org/2000/svg">
<path fill-rule="evenodd" clip-rule="evenodd" d="M107 57C107 84.6139 84.6146 107 57.0001 107C29.3858 107 7 84.6139 7 57C7 29.3857 29.3858 7 57.0001 7C84.6146 7 107 29.3857 107 57ZM59.0092 91.6913V44.1231C59.0092 42.9696 59.9443 42.0345 61.0979 42.0345H87.1723C89.8349 42.0345 91.4809 44.9369 90.1152 47.2223L62.8906 92.7637C61.8027 94.5834 59.0092 93.8119 59.0092 91.6913ZM54.9908 69.8233V22.2549C54.9908 20.1346 52.1973 19.3633 51.1094 21.1831L23.885 66.7242C22.5189 69.0095 24.1654 71.912 26.8279 71.912H52.9021C54.0557 71.912 54.9908 70.9769 54.9908 69.8233Z" fill="#91029B"/>
<g filter="url(#filter0_d_10_82)">
<path d="M82.5 121C99.897 121 114 106.897 114 89.5C114 72.103 99.897 58 82.5 58C65.103 58 51 72.103 51 89.5C51 106.897 65.103 121 82.5 121Z" fill="#E6E6F2" stroke="url(#paint0_linear_10_82)" stroke-width="3" stroke-miterlimit="10"/>
<path d="M76.3086 64.663C65.166 67.4327 56.9095 77.5005 56.9095 89.4981C56.9095 101.496 65.1679 111.565 76.3086 114.333" stroke="url(#paint1_linear_10_82)" stroke-width="3" stroke-miterlimit="10"/>
<path d="M88.5055 114.38C99.7421 111.678 108.092 101.565 108.092 89.4981C108.092 77.431 99.7421 67.3199 88.5055 64.616" stroke="url(#paint2_linear_10_82)" stroke-width="3" stroke-miterlimit="10"/>
<path d="M80.0084 71.7V74.8285" stroke="url(#paint3_linear_10_82)" stroke-width="3" stroke-miterlimit="10"/>
<path d="M84.0822 71.7V74.8285" stroke="url(#paint4_linear_10_82)" stroke-width="3" stroke-miterlimit="10"/>
<path d="M80.0084 104.404V107.533" stroke="url(#paint5_linear_10_82)" stroke-width="3" stroke-miterlimit="10"/>
<path d="M84.0822 104.404V107.533" stroke="url(#paint6_linear_10_82)" stroke-width="3" stroke-miterlimit="10"/>
<path d="M84.8563 102.749C83.7834 102.843 74.8956 102.749 69.2416 102.749C70.0496 94.9417 79.6063 96.4223 84.4523 95.6144C89.2983 94.8064 87.0097 87.403 87.0097 87.403C93.605 89.4211 94.009 101.941 84.8563 102.749Z" fill="url(#paint7_linear_10_82)" fill-opacity="0.6"/>
<path d="M79.7774 76.484C80.8503 76.3901 89.7381 76.484 95.3921 76.484C94.5841 84.2914 85.0274 82.8107 80.1814 83.6187C75.3354 84.4267 77.624 91.83 77.624 91.83C71.0286 89.8101 70.6246 77.292 79.7774 76.484Z" fill="url(#paint8_linear_10_82)" fill-opacity="0.6"/>
<path d="M82.4681 95.7233C85.9581 95.7233 88.7873 92.8941 88.7873 89.4041C88.7873 85.9141 85.9581 83.085 82.4681 83.085C78.9781 83.085 76.1489 85.9141 76.1489 89.4041C76.1489 92.8941 78.9781 95.7233 82.4681 95.7233Z" fill="url(#paint9_linear_10_82)" stroke="#E6E6F2" stroke-width="2"/>
</g>
<g filter="url(#filter1_d_10_82)">
<path d="M82.5 121C99.897 121 114 106.897 114 89.5C114 72.103 99.897 58 82.5 58C65.103 58 51 72.103 51 89.5C51 106.897 65.103 121 82.5 121Z" fill="#E6E6F2" stroke="url(#paint10_linear_10_82)" stroke-width="3" stroke-miterlimit="10"/>
<path d="M76.3086 64.663C65.166 67.4327 56.9095 77.5005 56.9095 89.4981C56.9095 101.496 65.1679 111.565 76.3086 114.333" stroke="url(#paint11_linear_10_82)" stroke-width="3" stroke-miterlimit="10"/>
<path d="M88.5055 114.38C99.7421 111.678 108.092 101.565 108.092 89.4981C108.092 77.431 99.7421 67.3199 88.5055 64.616" stroke="url(#paint12_linear_10_82)" stroke-width="3" stroke-miterlimit="10"/>
<path d="M80.0084 71.7V74.8285" stroke="url(#paint13_linear_10_82)" stroke-width="3" stroke-miterlimit="10"/>
<path d="M84.0822 71.7V74.8285" stroke="url(#paint14_linear_10_82)" stroke-width="3" stroke-miterlimit="10"/>
<path d="M80.0084 104.404V107.533" stroke="url(#paint15_linear_10_82)" stroke-width="3" stroke-miterlimit="10"/>
<path d="M84.0822 104.404V107.533" stroke="url(#paint16_linear_10_82)" stroke-width="3" stroke-miterlimit="10"/>
<path d="M84.8563 102.749C83.7834 102.843 74.8956 102.749 69.2416 102.749C70.0496 94.9417 79.6063 96.4223 84.4523 95.6144C89.2983 94.8064 87.0097 87.403 87.0097 87.403C93.605 89.4211 94.009 101.941 84.8563 102.749Z" fill="url(#paint17_linear_10_82)" fill-opacity="0.6"/>
<path d="M79.7774 76.484C80.8503 76.3901 89.7381 76.484 95.3921 76.484C94.5841 84.2914 85.0274 82.8107 80.1814 83.6187C75.3354 84.4267 77.624 91.83 77.624 91.83C71.0286 89.8101 70.6246 77.292 79.7774 76.484Z" fill="url(#paint18_linear_10_82)" fill-opacity="0.6"/>
<path d="M82.4681 95.7233C85.9581 95.7233 88.7873 92.8941 88.7873 89.4041C88.7873 85.9141 85.9581 83.085 82.4681 83.085C78.9781 83.085 76.1489 85.9141 76.1489 89.4041C76.1489 92.8941 78.9781 95.7233 82.4681 95.7233Z" fill="url(#paint19_linear_10_82)" stroke="#E6E6F2" stroke-width="2"/>
</g>
<defs>
<filter id="filter0_d_10_82" x="19.5" y="36.5" width="126" height="126" filterUnits="userSpaceOnUse" color-interpolation-filters="sRGB">
<feFlood flood-opacity="0" result="BackgroundImageFix"/>
<feColorMatrix in="SourceAlpha" type="matrix" values="0 0 0 0 0 0 0 0 0 0 0 0 0 0 0 0 0 0 127 0" result="hardAlpha"/>
<feOffset dy="10"/>
<feGaussianBlur stdDeviation="15"/>
<feComposite in2="hardAlpha" operator="out"/>
<feColorMatrix type="matrix" values="0 0 0 0 0 0 0 0 0 0 0 0 0 0 0 0 0 0 0.25 0"/>
<feBlend mode="normal" in2="BackgroundImageFix" result="effect1_dropShadow_10_82"/>
<feBlend mode="normal" in="SourceGraphic" in2="effect1_dropShadow_10_82" result="shape"/>
</filter>
<filter id="filter1_d_10_82" x="19.5" y="36.5" width="126" height="126" filterUnits="userSpaceOnUse" color-interpolation-filters="sRGB">
<feFlood flood-opacity="0" result="BackgroundImageFix"/>
<feColorMatrix in="SourceAlpha" type="matrix" values="0 0 0 0 0 0 0 0 0 0 0 0 0 0 0 0 0 0 127 0" result="hardAlpha"/>
<feOffset dy="10"/>
<feGaussianBlur stdDeviation="15"/>
<feComposite in2="hardAlpha" operator="out"/>
<feColorMatrix type="matrix" values="0 0 0 0 0 0 0 0 0 0 0 0 0 0 0 0 0 0 0.25 0"/>
<feBlend mode="normal" in2="BackgroundImageFix" result="effect1_dropShadow_10_82"/>
<feBlend mode="normal" in="SourceGraphic" in2="effect1_dropShadow_10_82" result="shape"/>
</filter>
<linearGradient id="paint0_linear_10_82" x1="71.611" y1="57.4363" x2="83.7251" y2="57.4363" gradientUnits="userSpaceOnUse">
<stop stop-color="#49506D"/>
<stop offset="1" stop-color="#0F1531"/>
</linearGradient>
<linearGradient id="paint1_linear_10_82" x1="56.344" y1="89.5" x2="76.4439" y2="89.5" gradientUnits="userSpaceOnUse">
<stop stop-color="#49506D"/>
<stop offset="1" stop-color="#0F1531"/>
</linearGradient>
<linearGradient id="paint2_linear_10_82" x1="88.374" y1="89.5" x2="108.656" y2="89.5" gradientUnits="userSpaceOnUse">
<stop stop-color="#49506D"/>
<stop offset="1" stop-color="#0F1531"/>
</linearGradient>
<linearGradient id="paint3_linear_10_82" x1="80.0084" y1="73.2642" x2="81.0084" y2="73.2642" gradientUnits="userSpaceOnUse">
<stop stop-color="#49506D"/>
<stop offset="1" stop-color="#0F1531"/>
</linearGradient>
<linearGradient id="paint4_linear_10_82" x1="84.0822" y1="73.2642" x2="85.0822" y2="73.2642" gradientUnits="userSpaceOnUse">
<stop stop-color="#49506D"/>
<stop offset="1" stop-color="#0F1531"/>
</linearGradient>
<linearGradient id="paint5_linear_10_82" x1="nan" y1="nan" x2="nan" y2="nan" gradientUnits="userSpaceOnUse">
<stop stop-color="#49506D"/>
<stop offset="1" stop-color="#0F1531"/>
</linearGradient>
<linearGradient id="paint6_linear_10_82" x1="84.0822" y1="105.969" x2="85.0822" y2="105.969" gradientUnits="userSpaceOnUse">
<stop stop-color="#49506D"/>
<stop offset="1" stop-color="#0F1531"/>
</linearGradient>
<linearGradient id="paint7_linear_10_82" x1="85.0454" y1="94.0851" x2="76.4303" y2="104.316" gradientUnits="userSpaceOnUse">
<stop stop-color="#49506D"/>
<stop offset="1" stop-color="#0F1531"/>
</linearGradient>
<linearGradient id="paint8_linear_10_82" x1="79.5873" y1="85.1485" x2="88.2024" y2="74.9177" gradientUnits="userSpaceOnUse">
<stop stop-color="#49506D"/>
<stop offset="1" stop-color="#0F1531"/>
</linearGradient>
<linearGradient id="paint9_linear_10_82" x1="83.4418" y1="83.8051" x2="81.4767" y2="95.1055" gradientUnits="userSpaceOnUse">
<stop stop-color="#1F294F"/>
<stop offset="1" stop-color="#6A6F85"/>
</linearGradient>
<linearGradient id="paint10_linear_10_82" x1="71.611" y1="57.4363" x2="83.7251" y2="57.4363" gradientUnits="userSpaceOnUse">
<stop stop-color="#49506D"/>
<stop offset="1" stop-color="#0F1531"/>
</linearGradient>
<linearGradient id="paint11_linear_10_82" x1="56.344" y1="89.5" x2="76.4439" y2="89.5" gradientUnits="userSpaceOnUse">
<stop stop-color="#49506D"/>
<stop offset="1" stop-color="#0F1531"/>
</linearGradient>
<linearGradient id="paint12_linear_10_82" x1="88.374" y1="89.5" x2="108.656" y2="89.5" gradientUnits="userSpaceOnUse">
<stop stop-color="#49506D"/>
<stop offset="1" stop-color="#0F1531"/>
</linearGradient>
<linearGradient id="paint13_linear_10_82" x1="80.0084" y1="73.2642" x2="81.0084" y2="73.2642" gradientUnits="userSpaceOnUse">
<stop stop-color="#49506D"/>
<stop offset="1" stop-color="#0F1531"/>
</linearGradient>
<linearGradient id="paint14_linear_10_82" x1="84.0822" y1="73.2642" x2="85.0822" y2="73.2642" gradientUnits="userSpaceOnUse">
<stop stop-color="#49506D"/>
<stop offset="1" stop-color="#0F1531"/>
</linearGradient>
<linearGradient id="paint15_linear_10_82" x1="nan" y1="nan" x2="nan" y2="nan" gradientUnits="userSpaceOnUse">
<stop stop-color="#49506D"/>
<stop offset="1" stop-color="#0F1531"/>
</linearGradient>
<linearGradient id="paint16_linear_10_82" x1="84.0822" y1="105.969" x2="85.0822" y2="105.969" gradientUnits="userSpaceOnUse">
<stop stop-color="#49506D"/>
<stop offset="1" stop-color="#0F1531"/>
</linearGradient>
<linearGradient id="paint17_linear_10_82" x1="85.0454" y1="94.0851" x2="76.4303" y2="104.316" gradientUnits="userSpaceOnUse">
<stop stop-color="#49506D"/>
<stop offset="1" stop-color="#0F1531"/>
</linearGradient>
<linearGradient id="paint18_linear_10_82" x1="79.5873" y1="85.1485" x2="88.2024" y2="74.9177" gradientUnits="userSpaceOnUse">
<stop stop-color="#49506D"/>
<stop offset="1" stop-color="#0F1531"/>
</linearGradient>
<linearGradient id="paint19_linear_10_82" x1="83.4418" y1="83.8051" x2="81.4767" y2="95.1055" gradientUnits="userSpaceOnUse">
<stop stop-color="#1F294F"/>
<stop offset="1" stop-color="#6A6F85"/>
</linearGradient>
</defs>
</svg>